<svg width="275" height="44" viewBox="0 0 275 44" fill="none" xmlns="http://www.w3.org/2000/svg">
<circle cx="22" cy="22" r="22" fill="#0C0E1D" fill-opacity="0.4"/>
<path fill-rule="evenodd" clip-rule="evenodd" d="M30.5031 26.7623C31.2939 25.354 31.75 23.7312 31.75 22C31.75 16.6147 27.3853 12.25 22 12.25C16.6147 12.25 12.25 16.6147 12.25 22C12.25 27.3853 16.6147 31.75 22 31.75C23.7312 31.75 25.354 31.2939 26.7623 30.5031L31.75 31.75L30.5031 26.7623Z" stroke="white" stroke-width="1.5" stroke-linecap="round" stroke-linejoin="round"/>
<path d="M21.8083 22.3499C21.9144 22.2438 22.0856 22.2438 22.1918 22.3499C22.2979 22.4561 22.2979 22.6273 22.1918 22.7334C22.0856 22.8396 21.9144 22.8396 21.8083 22.7334C21.7032 22.6273 21.7032 22.4561 21.8083 22.3499" stroke="white" stroke-width="1.5" stroke-linecap="round" stroke-linejoin="round"/>
<path d="M17.4749 22.3499C17.581 22.2438 17.7522 22.2438 17.8584 22.3499C17.9645 22.4561 17.9645 22.6273 17.8584 22.7334C17.7522 22.8396 17.581 22.8396 17.4749 22.7334C17.3698 22.6273 17.3698 22.4561 17.4749 22.3499" stroke="white" stroke-width="1.5" stroke-linecap="round" stroke-linejoin="round"/>
<path d="M26.1416 22.3499C26.2478 22.2438 26.419 22.2438 26.5251 22.3499C26.6313 22.4561 26.6313 22.6273 26.5251 22.7334C26.419 22.8396 26.2478 22.8396 26.1416 22.7334C26.0365 22.6273 26.0365 22.4561 26.1416 22.3499" stroke="white" stroke-width="1.5" stroke-linecap="round" stroke-linejoin="round"/>
<circle cx="99" cy="22" r="22" fill="#0C0E1D" fill-opacity="0.4"/>
<path fill-rule="evenodd" clip-rule="evenodd" d="M100.125 27.75H92.25C91.007 27.75 90 26.743 90 25.5V18.5C90 17.257 91.007 16.25 92.25 16.25H100.125C101.368 16.25 102.375 17.257 102.375 18.5V25.5C102.375 26.743 101.368 27.75 100.125 27.75Z" stroke="white" stroke-width="1.5" stroke-linecap="round" stroke-linejoin="round"/>
<path d="M102.375 23.097L106.17 26.151C106.906 26.744 108 26.22 108 25.275V18.725C108 17.78 106.906 17.256 106.17 17.849L102.375 20.903" stroke="white" stroke-width="1.5" stroke-linecap="round" stroke-linejoin="round"/>
<circle cx="176" cy="22" r="22" fill="#0C0E1D" fill-opacity="0.4"/>
<path d="M185 29V27.3541C185 26.5363 184.502 25.8008 183.743 25.4971L181.709 24.6835C180.743 24.2971 179.642 24.7156 179.177 25.646L179 26C179 26 176.5 25.5 174.5 23.5C172.5 21.5 172 19 172 19L172.354 18.823C173.284 18.3578 173.703 17.2571 173.317 16.2914L172.503 14.2572C172.199 13.4979 171.464 13 170.646 13H169C167.895 13 167 13.8954 167 15C167 23.8366 174.163 31 183 31C184.105 31 185 30.1046 185 29Z" stroke="white" stroke-width="1.5" stroke-linejoin="round"/>
<circle cx="253" cy="22" r="22" fill="#0C0E1D" fill-opacity="0.4"/>
<path d="M253 24C251.895 24 251 23.1046 251 22C251 20.8954 251.895 20 253 20C254.105 20 255 20.8954 255 22C255 23.1046 254.105 24 253 24Z" fill="white"/>
<path d="M261 24C259.895 24 259 23.1046 259 22C259 20.8954 259.895 20 261 20C262.105 20 263 20.8954 263 22C263 23.1046 262.105 24 261 24Z" fill="white"/>
<path d="M245 24C243.895 24 243 23.1046 243 22C243 20.8954 243.895 20 245 20C246.105 20 247 20.8954 247 22C247 23.1046 246.105 24 245 24Z" fill="white"/>
</svg>
